<svg width="107" height="55" viewBox="0 0 107 55" fill="none" xmlns="http://www.w3.org/2000/svg">
<path d="M14.499 37.0065C9.27851 37.0065 5.56746 32.8323 5.56746 27.6118C5.56746 22.3913 9.27851 18.3914 14.499 18.3914C19.7195 18.3914 23.2562 22.5674 23.2562 27.6118C23.2562 32.6561 19.6015 37.0065 14.499 37.0065ZM23.5221 13.5214L23.2702 16.225C20.8784 14.3897 17.8648 13.2854 14.4972 13.2854C6.20505 13.2872 0 19.7229 0 27.61C0 35.4971 6.20505 42.1108 14.499 42.1108C17.8666 42.1108 20.8802 40.9959 23.272 39.1412V41.1333C23.272 47.5514 20.1193 49.8429 14.3898 49.8429L14.4479 54.9999C21.5547 54.9999 28.7743 52.5359 28.7743 39.8704V13.5214H23.5239H23.5221Z" fill="#F1F3F4"/>
<path d="M39.9567 0H34.2906V41.431H39.9567V0Z" fill="#F1F3F4"/>
<path d="M68.0618 27.5961C68.0618 22.5517 64.4088 18.3757 59.3064 18.3757C54.2039 18.3757 50.3748 22.5517 50.3748 27.5961C50.3748 32.6404 54.0859 36.9908 59.3064 36.9908C64.5268 36.9908 68.0618 32.8165 68.0618 27.5961ZM44.8074 27.5961C44.8074 19.709 51.0124 13.2732 59.3046 13.2732C67.5968 13.2732 73.6275 19.709 73.6275 27.5961C73.6275 35.4831 67.4805 42.0933 59.3046 42.0933C51.1287 42.0933 44.8074 35.5994 44.8074 27.5961Z" fill="#F1F3F4"/>
<path d="M100.463 27.5961C100.463 22.5517 96.8097 18.3757 91.7054 18.3757C86.6012 18.3757 82.7757 22.5517 82.7757 27.5961C82.7757 32.6404 86.4867 36.9908 91.7054 36.9908C96.9241 36.9908 100.463 32.8165 100.463 27.5961ZM77.2082 27.5961C77.2082 19.709 83.4132 13.2732 91.7054 13.2732C99.9976 13.2732 106.03 19.709 106.03 27.5961C106.03 35.4831 99.8831 42.0933 91.7054 42.0933C83.5277 42.0933 77.2082 35.5994 77.2082 27.5961Z" fill="#F1F3F4"/>
</svg>
